<svg width="1045" height="256" viewBox="0 0 1045 256" fill="none" xmlns="http://www.w3.org/2000/svg">
<g clip-path="url(#clip0_58_32)">
<path d="M430.052 172.903C410.015 196.491 386.745 205.864 363.154 205.864C318.554 205.864 283.005 173.869 283.005 131.857C283.005 90.1677 316.939 57.8501 361.537 57.8501C385.13 57.8501 408.398 67.2225 428.435 90.8137L398.702 111.82C388.038 96.6322 375.757 90.4906 361.537 90.4906C338.592 90.4906 319.847 108.913 319.847 131.857C319.847 155.124 340.207 173.223 363.154 173.223C377.372 173.223 389.977 167.087 400.965 153.186L430.052 172.903Z" fill="#228800"/>
<path d="M446.521 0H483.688V202.958H446.521V0Z" fill="#228800"/>
<path d="M581.926 57.8501C626.524 57.8501 662.075 90.1677 662.075 131.857C662.075 173.549 626.524 205.864 581.926 205.864C537.33 205.864 501.457 173.549 501.457 131.857C501.457 90.1677 537.33 57.8501 581.926 57.8501ZM581.926 174.516C605.195 174.516 626.524 155.771 626.524 131.857C626.524 107.943 605.195 89.1982 581.926 89.1982C558.335 89.1982 537.33 107.943 537.33 131.857C537.33 155.771 558.335 174.516 581.926 174.516Z" fill="#228800"/>
<path d="M656.177 60.7581H699.808L735.034 136.707L773.169 60.7581H813.569L735.034 211.685L656.177 60.7581Z" fill="#228800"/>
<path d="M942.471 186.798C928.25 198.756 908.538 205.864 887.855 205.864C843.257 205.864 807.385 173.549 807.385 131.857C807.385 90.1677 840.026 57.8501 884.624 57.8501C929.222 57.8501 958.306 90.1677 958.306 131.857V142.522H844.549C849.719 161.266 867.818 174.516 887.855 174.516C900.138 174.516 910.802 170.638 920.495 160.62L942.471 186.798ZM919.203 112.143C913.708 99.2169 901.43 89.1982 884.624 89.1982C868.143 89.1982 854.568 98.2477 847.781 112.143H919.203Z" fill="#228800"/>
<path d="M976.532 123.131C976.532 89.1982 1002.39 60.7581 1044.4 60.7581V94.0449C1026.3 94.0449 1013.38 105.035 1013.38 127.657V202.958H976.532V123.131Z" fill="#228800"/>
<path d="M115.082 66.6081C115.082 34.852 89.308 9.06689 57.5289 9.06689C25.7572 9.06689 0.000244141 34.8191 0.000244141 66.5752C0.000244141 98.3311 25.7568 124.149 57.5433 124.149H115.082L115.082 66.6081Z" fill="#228800"/>
<path d="M131.224 66.6083C131.224 34.8522 156.999 9.06714 188.778 9.06714C220.55 9.06714 246.307 34.8194 246.307 66.5755C246.307 98.3314 220.55 124.149 188.763 124.149L131.224 124.149L131.224 66.6083Z" fill="#228800"/>
<path d="M131.224 197.832C131.224 229.62 156.991 255.374 188.783 255.374C220.54 255.374 246.307 229.639 246.307 197.851C246.307 166.094 220.54 140.291 188.763 140.291L131.224 140.291V197.832Z" fill="#228800"/>
<path d="M115.082 197.833C115.082 229.62 89.3152 255.374 57.5238 255.374C25.7672 255.374 0 229.639 0 197.852C0 166.094 25.7668 140.292 57.5433 140.292H115.082V197.833ZM57.5238 239.148C80.3609 239.148 98.9404 220.623 98.9404 197.852V156.442H57.5763C34.7289 156.442 16.1397 175.09 16.1397 197.852C16.1397 220.623 34.7038 239.148 57.5238 239.148Z" fill="#228800"/>
</g>
<defs>
<clipPath id="clip0_58_32">
<rect width="1044.4" height="256" fill="white"/>
</clipPath>
</defs>
</svg>
